<?xml version="1.0" encoding="utf-8"?>
<!-- Generator: Adobe Illustrator 19.0.1, SVG Export Plug-In . SVG Version: 6.00 Build 0)  -->
<svg version="1.1" id="Layer_1" xmlns="http://www.w3.org/2000/svg" xmlns:xlink="http://www.w3.org/1999/xlink" x="0px" y="0px"
	 viewBox="0 0 347.3 72.8" style="enable-background:new 0 0 347.3 72.8;" xml:space="preserve">
<style type="text/css">
	.st0{fill:#D24A43;}
	.st1{fill:#002C3D;}
</style>
<g>
	<path class="st0" d="M52.1,43.7c-1.2,0.7-0.7,0.4-3.1,1.7c-15.5,10.2-3.3,28.4,0.2,27c-10.2,5.1-49.1-50.7,7.9-54
		C82.8,17,72.7,34.6,52.1,43.7z"/>
	<path class="st0" d="M50.8,58.8c-0.6,0.3-0.3,0.2-1.5,0.9c-7.4,4.9-1.9,13.5-0.2,12.8c-5.3,2.2-23.3-24.4,3.8-25.9
		C65.3,45.9,60.7,54.5,50.8,58.8z"/>
	<g>
		<path class="st1" d="M42.8,18.8C36,5.7,28.4-1.6,23.3,0.3c-5.4,2-6.4,13.2-2.6,28.7C6.3,36.1-1.7,44.1,0.3,49.5
			c1.9,5.2,12.2,6.3,26.7,3.1C22,39.6,23.1,24.6,42.8,18.8z"/>
	</g>
	<g>
		<g>
			<path class="st1" d="M102,52.2h21.7c4.6,0,8.4-3.5,8.4-7.9v-1.5c0-4.3-3.5-7.7-8.1-7.9l-0.2,0h-14.6c-1.3,0-2.3-1-2.3-2.2v-1.4
				c0-1.2,1-2.2,2.3-2.2h21.2v-5.7h-21.2c-4.6,0-8.4,3.5-8.4,7.9v1.4c0,4.3,3.8,7.9,8.4,7.9h14.5c1.3,0,2.3,1,2.3,2.2v1.5
				c0,1.2-1,2.2-2.3,2.2H102V52.2z"/>
		</g>
		<g>
			<g>
				<path class="st1" d="M139.2,52.2h6.1V23.6h-6.1L139.2,52.2z"/>
			</g>
		</g>
		<g>
			<g>
				<path class="st1" d="M305.3,52.2h6.1V23.6h-6.1L305.3,52.2z"/>
			</g>
		</g>
		<g>
			<path class="st1" d="M224.1,52.2h6.1l0-20.8c0-4.3-3.8-7.9-8.4-7.9h-30.2v28.6h6V29.3h10.1l0,22.9h6.1V29.3h8
				c1.3,0,2.3,1,2.3,2.2L224.1,52.2z"/>
		</g>
		<g>
			<path class="st1" d="M265.9,31.4c0-4.3-3.8-7.9-8.4-7.9h-19.3v5.7h19.3c1.3,0,2.3,1,2.3,2.2l0,3.6h-15.3c-4.6,0-8.4,3.5-8.4,7.9
				v1.5c0,4.3,3.8,7.9,8.4,7.9h21.3L265.9,31.4z M259.8,46.5L259.8,46.5h-15.3c-1.3,0-2.3-1-2.3-2.2v-1.5c0-1.2,1-2.2,2.3-2.2h15.3
				L259.8,46.5z"/>
		</g>
		<g>
			<path class="st1" d="M347.3,31.4c0-4.3-3.8-7.9-8.4-7.9h-19.3v5.7h19.3c1.3,0,2.3,1,2.3,2.2l0,3.6h-15.3c-4.6,0-8.4,3.5-8.4,7.9
				v1.5c0,4.3,3.8,7.9,8.4,7.9h21.3L347.3,31.4z M341.2,46.5L341.2,46.5h-15.3c-1.3,0-2.3-1-2.3-2.2v-1.5c0-1.2,1-2.2,2.3-2.2h15.3
				L341.2,46.5z"/>
		</g>
		<g>
			<path class="st1" d="M153.5,44.4c0,4.3,3.8,7.9,8.4,7.9h21.4V35.1h-16v5.7h9.9v5.8h-15.3c-1.3,0-2.3-1-2.3-2.2l0-12.9
				c0-1.2,1-2.2,2.3-2.2h21.3v-5.7h-21.3c-4.6,0-8.4,3.5-8.4,7.9L153.5,44.4z"/>
		</g>
		<polygon class="st1" points="294.3,23.6 285,45.5 275.7,23.6 270,23.6 282.1,52.2 282.2,52.2 287.8,52.2 287.9,52.2 300,23.6 		
			"/>
	</g>
</g>
</svg>
