<?xml version="1.0" encoding="utf-8"?>
<!-- Generator: Adobe Illustrator 19.0.1, SVG Export Plug-In . SVG Version: 6.00 Build 0)  -->
<svg version="1.1" id="Слой_1" xmlns="http://www.w3.org/2000/svg" xmlns:xlink="http://www.w3.org/1999/xlink" x="0px" y="0px"
	 viewBox="0 0 655.1 183.6" style="enable-background:new 0 0 655.1 183.6;" xml:space="preserve">
<style type="text/css">
	.st0{clip-path:url(#SVGID_2_);}
</style>
<g>
	<defs>
		<rect id="SVGID_1_" width="655.1" height="183.6"/>
	</defs>
	<clipPath id="SVGID_2_">
		<use xlink:href="#SVGID_1_"  style="overflow:visible;"/>
	</clipPath>
	<path class="st0" d="M220.6,181.4v-3.1h0.3c1.4,0.4,4.9,1.2,7.1,1.2h1.2c3.6,0,6-1.3,6-4.9c0-3.1-1.6-4.1-4.2-4.7l-3.8-1
		c-2.7-0.8-6.2-2.5-6.2-7.6c0-4.6,3.5-7.7,9.2-7.7h0.9c2.1,0,5.4,0.6,6.5,1.2v3h-0.3c-1.4-0.5-4.3-1.1-6.2-1.1h-0.9
		c-3.6,0-5.7,1.3-5.7,4.6c0,3,1.9,3.8,4.2,4.4l3.7,1.1c2.9,0.8,6.4,2.4,6.4,7.9c0,4.9-3.5,8-9.5,8H228
		C225.6,182.6,221.8,181.8,220.6,181.4"/>
	<path class="st0" d="M244,171.6c0-6.2,3-10.4,9-10.4c6.4,0,9,4.2,9,10.4c0,6.8-3,11-9,11C246.7,182.6,244,178.4,244,171.6
		 M258.8,171.6c0-4.6-1.3-7.4-5.8-7.4c-4.4,0-5.8,2.8-5.8,7.4c0,4.6,1.3,8,5.8,8C257.5,179.6,258.8,176.2,258.8,171.6"/>
	<path class="st0" d="M269.8,164.5h-3.3v-3h3.3v-0.9c0-4.5,2.7-6.8,6.8-6.8h2.4v3h-2.4c-2.7,0-3.6,1.2-3.6,3.9v0.9h5.4v3H273v17.8
		h-3.3V164.5z"/>
	<path class="st0" d="M292.1,182.3c-4.4,0-7.1-2.1-7.1-7.1v-10.7h-3.3v-3h3.3v-4.7h3.3v4.7h5.9v3h-5.9v10.1c0,3.8,1.2,4.7,4.4,4.7
		h2.1v3H292.1z"/>
	<path class="st0" d="M299.2,166.9v-5.4h3.3v5.4c0,5.9,1.9,10.8,3.7,13c1.8-2.2,3.7-7.1,3.7-13v-5.4h3.3v5.4c0,5.9,1.9,10.8,3.7,13
		c1.7-2.2,3.7-7.1,3.7-13v-5.4h3.3v5.4c0,7.1-3,13.3-5.1,15.4h-3.5c-1.1-1.2-3.3-4.9-3.7-7.1c-0.5,2.2-2.7,6-3.7,7.1h-3.5
		C302.1,180.2,299.2,174,299.2,166.9"/>
	<path class="st0" d="M329.3,175.5v-3.3c0-6.5,5.3-10.7,11-10.7h5.6v20.8h-3.3v-3.9l-1.5,1.5c-1.5,1.5-3.3,2.7-5.9,2.7
		C331.9,182.6,329.3,180.5,329.3,175.5 M342.6,175.1v-10.7h-2.4c-4.5,0-7.7,3-7.7,7.7v3.3c0,3.3,1.5,4.2,3.2,4.2
		c2.1,0,4.5-2.1,5.7-3.3L342.6,175.1z"/>
	<path class="st0" d="M354.1,161.5h3.3v4.6l0.3-0.5c1.6-2.4,3.4-4.1,6.1-4.1h1.3v3.6h-1.5c-1.5,0-2.9,0.6-3.9,1.5l-2.4,2.4v13.4
		h-3.3V161.5z"/>
	<path class="st0" d="M369.1,174.3v-4.1c0-5.7,3.8-8.9,8.9-8.9c4.1,0,7.1,1.8,7.1,6c0,3.7-2.4,5.9-6.5,5.9h-6.2v1.2
		c0,3.9,2.4,5.4,5.6,5.4c2.4,0,4.7-0.9,5.6-1.3h0.3v3c-0.9,0.4-3.6,1.3-5.9,1.3C372.9,182.6,369.1,180.2,369.1,174.3 M372.3,170.4
		h5.3c3.3,0,4.2-1.2,4.2-3.2c0-2.2-1.5-3-3.9-3c-3.6,0-5.6,1.8-5.6,6V170.4z"/>
	<path class="st0" d="M218.6,130.3h57.7c12.3,0,22.3-9.4,22.3-20.9v-3.9c0-11.3-9.4-20.5-21.5-20.9l-0.4,0h-39
		c-3.4,0-6.1-2.6-6.1-5.8V75c0-3.2,2.8-5.8,6.1-5.8h56.5V54h-56.5c-12.3,0-22.3,9.4-22.3,20.9v3.8c0,11.5,10,20.9,22.3,20.9h38.6
		c3.4,0,6.1,2.6,6.1,5.8v3.9c0,3.2-2.8,5.8-6.1,5.8h-57.7V130.3z"/>
	<rect x="317.7" y="54" class="st0" width="16.2" height="76.3"/>
	<path class="st0" d="M543.7,130.3h16.2l0-55.3c0-11.6-10-20.9-22.3-20.9h-80.5v76.3h16.1V69.2H500l0,61.1h16.1V69.2h21.4
		c3.4,0,6.1,2.6,6.1,5.8L543.7,130.3z"/>
	<path class="st0" d="M655.1,75c0-11.5-10-20.9-22.3-20.9h-51.3v15.2h51.3c3.4,0,6.1,2.6,6.1,5.8l0,9.5h-40.7
		c-12.3,0-22.3,9.4-22.3,21v3.9c0,11.6,10,21,22.3,21H655L655.1,75z M638.9,115.1L638.9,115.1h-40.7c-3.4,0-6.1-2.6-6.1-5.8v-3.9
		c0-3.2,2.8-5.8,6.1-5.8h40.7L638.9,115.1z"/>
	<path class="st0" d="M355.7,109.4c0,11.5,10,20.9,22.3,20.9h56.9V84.6h-42.5v15.2h26.3v15.4H378c-3.4,0-6.1-2.6-6.1-5.8l0-34.4
		c0-3.2,2.8-5.8,6.1-5.8h56.7V54h-56.7c-12.3,0-22.3,9.4-22.3,21L355.7,109.4z"/>
	<path class="st0" d="M91.8,183.6c-13.8,0-25.2-24.4-29.4-62.4C24.4,117,0,105.6,0,91.8C0,78,24.4,66.6,62.4,62.4
		C66.6,24.4,78,0,91.8,0c13.5,0,25,24.1,29.3,61.3c0,0.4,0.1,0.7,0.1,1.1l0.1,0c37.9,4.2,62.4,15.7,62.4,29.4
		c0,13.8-24.4,25.2-62.4,29.4C117,159.2,105.6,183.6,91.8,183.6 M91.8,5C81,5,70.7,30.2,67.2,64.9L67,67l-2,0.2
		C30.2,70.7,5,81,5,91.8c0,10.7,25.2,21.1,59.9,24.6l2,0.2l0.2,2c3.5,34.7,13.9,59.9,24.6,59.9c10.7,0,21.1-25.2,24.6-59.9l0.1-1.2
		l0.2-0.2l0.2-0.7l1.6-0.2c34.7-3.5,59.9-13.9,59.9-24.6c0-10.4-24.4-20.7-57.9-24.4l-1.9-0.2h-2.1l-0.2-2.2c-0.1-1-0.2-2-0.3-3
		C112.2,28.4,102.3,5,91.8,5"/>
</g>
</svg>
